<svg height="15" viewBox="0 0 15 15" width="15" xmlns="http://www.w3.org/2000/svg"><path d="m4 0c-1.3636 0-3 .7433-3 2.7461v5.4531 3.8008s0 1 1 1v1s0 1 1 1 1-1 1-1v-1h7v1s0 1 1 1 1-1 1-1v-1s1 0 1-1v-9.2539c0-2.0455-1.236-2.7461-2.5996-2.7461zm.25 1.5h6.5c.1385 0 .25.1115.25.25s-.1115.25-.25.25h-6.5c-.1385 0-.25-.1115-.25-.25s.1115-.25.25-.25zm-1.25 1.5h9c1 0 1 .9668 1 .9668v3.0332s0 1-1 1h-9c-1 0-1-1-1-1v-3s0-1 1-1zm0 7c.5523 0 1 .4477 1 1s-.4477 1-1 1-1-.4477-1-1 .4477-1 1-1zm9 0c.5523 0 1 .4477 1 1s-.4477 1-1 1-1-.4477-1-1 .4477-1 1-1z"/></svg>