<svg viewBox="0 0 1122 1045.437" xmlns="http://www.w3.org/2000/svg"><path d="M974.614 1009.032l-48.567-16.29 144.676-431.517v-67.522h-352.93l-94.776 97.338H51.23v153.693c58.72 35.717 97.34 99.36 97.34 172.02v.337-.017 83.813H97.34V917.38v-.167c0-58.475-33.494-109.127-82.343-133.818l-.857-.393L0 775.932V539.81h601.398l94.777-97.338h425.78v127.155zM620.25 588.48H44.06l57.224-343.247h577.012l56.866 227.977zm-515.74-51.232h494.53l79.767-79.408-40.472-161.377h-493.66zM243.347 1.888h245.908v294.576H243.346zm194.677 51.23H294.577v192.115h143.446zM317.63 783.156h-97.337v-51.23h97.338zm194.677 0H414.97v-51.23h97.337zm194.677 0h-97.338v-51.23h97.338zm389.354-97.34H804.323v-51.23h292.015zm-801.76-122.952h-51.232V416.856h51.23zm194.676 0h-51.23V416.856h51.23zm498.68 463.023h-.175c-37.985 0-72.304-15.694-96.826-40.952l-.032-.033c-19.63-20.19-32.453-47.09-34.71-76.942l-.024-.417 51.23-3.74c1.354 17.81 8.92 33.63 20.508 45.508l-.014-.014c15.13 15.76 36.374 25.553 59.905 25.553 41.566 0 75.996-30.558 82.05-70.434l.056-.46v-1.64l9.478 1.23h41.55v5.33c-7.002 51.8-42.545 93.812-90.038 110.068l-.95.282c-12.416 4.223-26.72 6.66-41.593 6.66h-.44.023zm-213.325-1.434c-67.264-.258-122.846-49.933-132.345-114.59l-.088-.73 50.77-7.02c5.803 40.378 40.16 71.065 81.687 71.065s75.885-30.687 81.635-70.62l.05-.443 50.77 7.02c-9.588 65.404-65.198 115.087-132.457 115.32h-.024zm-219.37-.36c-.134.002-.29.002-.448.002-66.833 0-121.648-51.458-126.985-116.916l-.03-.456 51.23-4.303c3.22 39.574 36.127 70.47 76.25 70.47 1.562 0 3.113-.047 4.65-.14l-.21.01h2.51c1.02.05 2.214.077 3.416.077 39.888 0 72.678-30.39 76.478-69.28l.026-.316 51.23 4.817c-6.383 65.335-61.03 115.977-127.503 115.977-1.715 0-3.422-.034-5.12-.1l.244.008zm-213.582-2.1h-.168c-66.66 0-121.39-51.068-127.207-116.214l-.035-.49 51.23-4.56c3.593 39.425 36.49 70.073 76.548 70.073 1.33 0 2.653-.034 3.967-.1l-.184.006h2.407c.91.038 1.98.06 3.055.06 39.9 0 72.7-30.41 76.482-69.318l.025-.315 51.23 4.816c-6.363 65.354-61.02 116.018-127.508 116.018-1.623 0-3.24-.03-4.848-.09l.232.008zm-208.663 1.845h-.157c-15.044 0-29.506-2.494-42.995-7.09l.938.277C42.578 1000.373 7.236 958.495.284 907.58l-.078-.7 50.82-6.56c5.43 41.056 40.213 72.41 82.317 72.41 23.27 0 44.303-9.578 59.373-25.005l.58-.58c11.975-11.52 19.762-27.322 20.892-44.933l.01-.2 51.23 3.227c-1.98 30.967-15.468 58.45-36.187 78.505l-.032.03c-24.488 24.743-58.453 40.064-95.997 40.064h-.225.012z"/></svg>