<svg id="SvgjsSvg1001" width="256" height="256" xmlns="http://www.w3.org/2000/svg" version="1.1" xmlns:xlink="http://www.w3.org/1999/xlink" xmlns:svgjs="http://svgjs.com/svgjs"><defs id="SvgjsDefs1002"></defs><g id="SvgjsG1008"><svg xmlns="http://www.w3.org/2000/svg" enable-background="new 0 0 32 32" viewBox="0 0 32 32" width="256" height="256"><path d="M29,0H3C1.3457,0,0,1.3457,0,3v26c0,1.6543,1.3457,3,3,3h26c1.6543,0,3-1.3457,3-3V3C32,1.3457,30.6543,0,29,0z M30,29
		c0,0.55176-0.44824,1-1,1H3c-0.55176,0-1-0.44824-1-1V3c0-0.55127,0.44824-1,1-1h26c0.55176,0,1,0.44873,1,1V29z" fill="#000000" class="color000 svgShape"></path><path d="M9 15.18427V7c0-.55225-.44727-1-1-1S7 6.44775 7 7v8.18427C5.8385 15.59839 5 16.69806 5 18s.8385 2.40155 2 2.81567V25c0 .55273.44727 1 1 1s1-.44727 1-1v-4.18427c1.1615-.41412 2-1.51379 2-2.81573S10.1615 15.59839 9 15.18427zM8 19c-.55176 0-1-.44824-1-1s.44824-1 1-1 1 .44824 1 1S8.55176 19 8 19zM17 8.18427V7c0-.55225-.44727-1-1-1s-1 .44775-1 1v1.18427C13.8385 8.59839 13 9.69806 13 11s.8385 2.40155 2 2.81567V25c0 .55273.44727 1 1 1s1-.44727 1-1V13.81573c1.1615-.41412 2-1.51379 2-2.81573S18.1615 8.59839 17 8.18427zM16 12c-.55176 0-1-.44873-1-1s.44824-1 1-1 1 .44873 1 1S16.55176 12 16 12zM25 18.18427V7c0-.55225-.44727-1-1-1s-1 .44775-1 1v11.18427C21.8385 18.59839 21 19.69806 21 21s.8385 2.40155 2 2.81567V25c0 .55273.44727 1 1 1s1-.44727 1-1v-1.18427c1.1615-.41412 2-1.51379 2-2.81573S26.1615 18.59839 25 18.18427zM24 22c-.55176 0-1-.44824-1-1s.44824-1 1-1 1 .44824 1 1S24.55176 22 24 22z" fill="#000000" class="color000 svgShape"></path></svg></g></svg>