<svg id="SvgjsSvg1021" width="256" height="256" xmlns="http://www.w3.org/2000/svg" version="1.1" xmlns:xlink="http://www.w3.org/1999/xlink" xmlns:svgjs="http://svgjs.com/svgjs"><defs id="SvgjsDefs1022"></defs><g id="SvgjsG1023"><svg xmlns="http://www.w3.org/2000/svg" enable-background="new 0 0 504.001 471.999" viewBox="0 0 504.001 471.999" width="256" height="256"><path d="M79.286 322.523H43.857c-2.209 0-4 1.791-4 4s1.791 4 4 4h13.714v49.34c0 2.209 1.791 4 4 4s4-1.791 4-4v-49.34h13.714c2.209 0 4-1.791 4-4S81.495 322.523 79.286 322.523zM185.571 322.523c-2.209 0-4 1.791-4 4v35.561c0 7.598-6.152 13.779-13.714 13.779s-13.714-6.182-13.714-13.779v-35.561c0-2.209-1.791-4-4-4s-4 1.791-4 4v35.561c0 12.009 9.741 21.779 21.714 21.779s21.714-9.771 21.714-21.779v-35.561C189.571 324.315 187.78 322.523 185.571 322.523zM203.286 322.523c-2.209 0-4 1.791-4 4v53.34c0 2.209 1.791 4 4 4s4-1.791 4-4v-22.67h15.667l12.181 24.453c1.392 1.642 3.154 2.31 5.364 1.797 1.977-.984 2.782-3.387 1.797-5.363l-10.939-21.959c6.616-2.434 11.358-8.795 11.358-16.263 0-9.559-7.754-17.335-17.286-17.335H203.286zM234.714 339.858c0 5.147-4.166 9.335-9.286 9.335h-18.143v-18.67h18.143C230.549 330.523 234.714 334.711 234.714 339.858zM114.714 322.523c-12.176 0-21.714 13.472-21.714 30.67s9.538 30.67 21.714 30.67 21.714-13.472 21.714-30.67S126.891 322.523 114.714 322.523zM114.714 375.863c-7.434 0-13.714-10.382-13.714-22.67s6.28-22.67 13.714-22.67 13.714 10.382 13.714 22.67S122.148 375.863 114.714 375.863z" fill="#000000" className="color000 svgShape"></path><path d="M500.668,60.813l-26.201-4.438c-1.046-0.179-2.121,0.068-2.986,0.684s-1.45,1.55-1.626,2.597l-0.81,4.818L88.711,0.055
		c-1.045-0.174-2.121,0.069-2.986,0.685c-0.865,0.615-1.45,1.55-1.626,2.597L42.834,248.788c-0.366,2.177,1.101,4.238,3.277,4.606
		l18.215,3.085C25.633,281.711,0,325.369,0,374.908v22.735v24.749c0,14.896,6.579,28.861,18.049,38.318
		c11.409,9.407,26.269,13.188,40.768,10.369l60.713-11.794c14.436-2.805,29.075-2.805,43.511,0l60.713,11.794
		c3.146,0.611,6.308,0.911,9.449,0.911c11.335,0,22.385-3.915,31.319-11.28c11.47-9.457,18.049-23.423,18.049-38.318v-24.749
		v-22.735c0-32.555-11.073-62.568-29.643-86.485l173.526,29.39l-24.391,145.085c-0.366,2.177,1.101,4.238,3.277,4.607l26.201,4.437
		c0.222,0.038,0.446,0.057,0.668,0.057c0.826,0,1.637-0.256,2.318-0.74c0.865-0.615,1.45-1.55,1.626-2.597l67.791-403.243
		C504.311,63.242,502.844,61.181,500.668,60.813z M274.571,374.908v18.735H8v-18.735c0-73.494,59.792-133.286,133.286-133.286
		S274.571,301.414,274.571,374.908z M244.881,278.947c-19.195-20.707-44.501-35.667-73.024-41.984v-8.205
		c0-9.572-7.766-17.36-17.311-17.36h-26.521c-9.545,0-17.311,7.788-17.311,17.36v8.205c-12.62,2.795-24.61,7.281-35.721,13.209
		l-23.608-3.998L91.324,8.611L467.718,72.36L427.78,309.925L244.881,278.947z" fill="#000000" className="color000 svgShape"></path><path d="M115.432 108.263l-26.201-4.438c-1.045-.18-2.121.068-2.986.684-.865.615-1.45 1.55-1.626 2.597l-7.369 43.831c-.366 2.177 1.101 4.238 3.277 4.606l26.201 4.438c.226.039.451.058.673.058 1.916 0 3.608-1.381 3.939-3.333.369-2.178-1.098-4.243-3.276-4.611l-22.262-3.771 2.358-14.028 22.252 3.769c.226.039.451.058.673.058 1.916 0 3.608-1.381 3.939-3.333.369-2.178-1.098-4.243-3.276-4.611l-22.262-3.77 2.358-14.026 22.252 3.769c2.176.375 4.243-1.097 4.612-3.275C119.077 110.696 117.61 108.631 115.432 108.263zM246.432 130.449c-2.182-.373-4.242 1.103-4.608 3.281l-5.158 30.682c-.415 2.467-1.762 4.621-3.793 6.065-2.016 1.436-4.467 1.996-6.905 1.585-5.051-.856-8.466-5.684-7.613-10.762l5.158-30.682c.366-2.179-1.103-4.241-3.282-4.607-2.176-.366-4.241 1.103-4.608 3.281l-5.158 30.682c-1.583 9.423 4.771 18.384 14.167 19.975.973.165 1.947.247 2.915.247 3.55 0 7.008-1.098 9.962-3.199 3.774-2.685 6.277-6.683 7.046-11.259l5.158-30.682C250.08 132.878 248.611 130.815 246.432 130.449zM279.188 135.998l-15.284-2.589c-1.045-.181-2.121.068-2.986.684-.865.615-1.45 1.55-1.626 2.597l-7.369 43.831c-.366 2.179 1.103 4.241 3.282 4.607.225.038.448.057.668.057 1.917 0 3.611-1.384 3.94-3.338l3.02-17.967 6.917 1.172 8.592 22.024c.617 1.58 2.127 2.547 3.728 2.547.483 0 .975-.088 1.453-.274 2.058-.803 3.076-3.122 2.273-5.181l-7.132-18.281c2.401-.317 4.704-1.216 6.735-2.661 3.291-2.34 5.472-5.826 6.142-9.814C292.921 145.196 287.38 137.384 279.188 135.998zM283.65 152.085c-.316 1.88-1.342 3.521-2.889 4.621-1.535 1.092-3.402 1.518-5.257 1.207l-11.345-1.922 2.358-14.026 11.336 1.921C281.701 144.536 284.301 148.215 283.65 152.085zM351.236 148.2c-2.175-.368-4.241 1.103-4.608 3.281l-7.369 43.831c-.366 2.179 1.103 4.241 3.282 4.607.225.038.447.057.668.057 1.917 0 3.611-1.384 3.94-3.338l7.369-43.831C354.884 150.629 353.415 148.566 351.236 148.2zM430.54 214.768c.137 0 .274-.007.412-.021 1.79-.185 3.236-1.541 3.535-3.315l7.369-43.831c.366-2.179-1.103-4.241-3.282-4.607-2.173-.368-4.241 1.103-4.608 3.281L429 195.812l-13.564-34.767c-.654-1.676-2.342-2.714-4.137-2.524-1.79.185-3.236 1.541-3.535 3.315l-7.369 43.831c-.366 2.179 1.103 4.241 3.282 4.607 2.178.369 4.241-1.102 4.608-3.281l4.965-29.538 13.564 34.767C427.418 213.769 428.907 214.768 430.54 214.768zM155.388 117.007l-12.446 14.605-6.984-17.902c-.803-2.058-3.123-3.077-5.181-2.272-2.058.803-3.075 3.122-2.272 5.181l8.547 21.906L121.818 156.4c-1.433 1.682-1.231 4.206.45 5.64.753.642 1.675.955 2.592.955 1.131 0 2.255-.478 3.046-1.405l12.446-14.605 6.984 17.902c.617 1.58 2.127 2.547 3.728 2.547.483 0 .975-.088 1.453-.274 2.058-.803 3.075-3.122 2.272-5.181l-8.547-21.906 15.233-17.876c1.433-1.682 1.231-4.206-.45-5.64S156.821 115.327 155.388 117.007zM189.668 120.836c-3.439-.584-6.974.329-10.22 2.639-5.519 3.925-9.697 11.528-11.178 20.338-2.437 14.498 3.138 27.123 12.694 28.742.689.116 1.379.174 2.067.174 5.081 0 10.048-3.148 13.882-8.888 1.227-1.837.733-4.32-1.104-5.548-1.836-1.228-4.32-.732-5.548 1.104-2.486 3.722-5.457 5.685-7.961 5.27-4.333-.734-7.92-8.935-6.14-19.528 1.12-6.661 4.156-12.464 7.925-15.145 1.5-1.067 2.929-1.497 4.247-1.271 2.465.417 4.689 3.332 5.805 7.607.558 2.138 2.742 3.421 4.88 2.859 2.138-.558 3.418-2.743 2.86-4.881C199.898 126.726 195.448 121.814 189.668 120.836zM319.209 142.891c-2.469-.143-4.906.182-7.235.978-6.543 2.233-10.882 8.035-10.798 14.437.018 1.356.244 2.683.689 3.994.864 2.508 2.736 4.922 5.137 6.624 2.482 1.757 5.37 2.872 8.163 3.949 3.771 1.455 7.332 2.83 8.15 5.235.16.471.241.953.248 1.475.039 2.931-2.125 5.647-5.386 6.761-1.339.459-2.741.65-4.17.563-4.206-.252-8.04-2.792-9.768-6.471-.94-1.999-3.324-2.86-5.321-1.919-2 .939-2.859 3.321-1.92 5.321 2.956 6.29 9.444 10.63 16.533 11.055.382.022.763.034 1.142.034 2.079 0 4.123-.34 6.091-1.013 6.543-2.233 10.883-8.035 10.798-14.437-.018-1.357-.245-2.685-.673-3.944-2.021-5.947-7.771-8.166-12.844-10.123-2.443-.943-4.75-1.834-6.417-3.015-1.003-.711-1.887-1.797-2.169-2.612-.008-.024-.027-.082-.035-.107-.16-.471-.242-.954-.249-1.476-.039-2.931 2.125-5.647 5.385-6.761 1.34-.458 2.745-.649 4.171-.562 4.205.251 8.039 2.791 9.767 6.47.939 1.999 3.322 2.858 5.321 1.919 2-.939 2.859-3.321 1.92-5.321C332.785 147.653 326.296 143.315 319.209 142.891zM381.809 153.377c-3.439-.579-6.973.331-10.219 2.641-5.518 3.925-9.697 11.528-11.178 20.338-2.437 14.498 3.138 27.122 12.693 28.74.674.114 1.352.172 2.031.172 2.783 0 5.579-.954 8.188-2.811 5.518-3.925 9.697-11.527 11.179-20.338C396.939 167.621 391.364 154.996 381.809 153.377zM386.613 180.793c-1.12 6.661-4.157 12.465-7.926 15.145-1.499 1.067-2.923 1.496-4.247 1.271-4.333-.734-7.92-8.935-6.139-19.527 1.12-6.661 4.156-12.464 7.925-15.145 1.242-.884 2.436-1.329 3.558-1.329.233 0 .462.019.688.057C384.807 161.999 388.394 170.199 386.613 180.793z" fill="#000000" className="color000 svgShape"></path></svg></g></svg>