<svg id="SvgjsSvg1001" width="256" height="256" xmlns="http://www.w3.org/2000/svg" version="1.1" xmlns:xlink="http://www.w3.org/1999/xlink" xmlns:svgjs="http://svgjs.com/svgjs"><defs id="SvgjsDefs1002"></defs><g id="SvgjsG1008"><svg xmlns="http://www.w3.org/2000/svg" viewBox="0 0 64 64" width="256" height="256"><path d="M41.8 44.8c-.3.3-.9.4-1.3.2l4.4-10.6c.1-.3.1-.6 0-.9-.1-.3-.4-.5-.7-.5H44v-4c0-.5-.3-.9-.8-1l-2.2-.4V21h-2v1.7l-6-1.5V20h2v-2h-6v2h2v1.2l-6 1.5V21h-2v6.6l-2.2.4c-.5.1-.8.5-.8 1v4h-.2c-.3 0-.6.2-.7.5-.1.3-.2.6 0 .9L23.5 45c-.4.2-.9.1-1.3-.2-1.2-1.2-3.2-1.2-4.4 0l1.4 1.4c.4-.4 1.1-.4 1.6 0 1.2 1.2 3.2 1.2 4.4 0 .4-.4 1.1-.4 1.6 0 1.2 1.2 3.2 1.2 4.4 0 .4-.4 1.1-.4 1.6 0 1.2 1.2 3.2 1.2 4.4 0 .4-.4 1.1-.4 1.6 0 .6.6 1.4.9 2.2.9s1.6-.3 2.2-.9c.4-.4 1.1-.4 1.6 0l1.4-1.4c-1.2-1.2-3.2-1.2-4.4 0zM25 24.8l7-1.8 7 1.8v2.5L32.2 26h-.4L25 27.3v-2.5zm-3 5L32 28l10 1.8v2.8l-5-.8V30h-2v1.5l-2-.3V29h-2v2.2l-2 .3V30h-2v1.8l-5 .8v-2.8zm13.8 15c-.4.4-1.1.4-1.6 0-1.2-1.2-3.2-1.2-4.4 0-.4.4-1.1.4-1.6 0-.8-.8-1.9-1.1-3-.8l-3.8-9.2L32 33l10.6 1.8-2 4.8-1.3-1.3c-.4.4-.8.6-1.3.8V37h-2v2.1c-.5-.2-.9-.4-1.3-.8l-1.4 1.4c1 1 2.4 1.5 3.7 1.5 1.2 0 2.5-.5 3.5-1.3L38.8 44c-1.1-.3-2.2 0-3 .8z" fill="#000000" className="color000 svgShape"></path><path d="M50 2c-.6 0-1 .4-1 1 0 1.1-.9 2-2 2s-2-.9-2-2c0-.6-.4-1-1-1h-4c-.6 0-1 .4-1 1 0 1.1-.9 2-2 2s-2-.9-2-2c0-.6-.4-1-1-1h-4c-.6 0-1 .4-1 1 0 1.1-.9 2-2 2s-2-.9-2-2c0-.6-.4-1-1-1h-4c-.6 0-1 .4-1 1 0 1.1-.9 2-2 2s-2-.9-2-2c0-.6-.4-1-1-1h-1c-.6 0-1 .4-1 1v58c0 .6.4 1 1 1h1c.6 0 1-.4 1-1 0-1.1.9-2 2-2s2 .9 2 2c0 .6.4 1 1 1h4c.6 0 1-.4 1-1 0-1.1.9-2 2-2s2 .9 2 2c0 .6.4 1 1 1h4c.6 0 1-.4 1-1 0-1.1.9-2 2-2s2 .9 2 2c0 .6.4 1 1 1h4c.6 0 1-.4 1-1 0-1.1.9-2 2-2s2 .9 2 2c0 .6.4 1 1 1h1c.6 0 1-.4 1-1V3c0-.6-.4-1-1-1h-1zm0 11v38h-2v2h2v5.4c-.7-.8-1.8-1.4-3-1.4-1.9 0-3.4 1.3-3.9 3h-2.3c-.4-1.7-2-3-3.9-3s-3.4 1.3-3.9 3h-2.2c-.4-1.7-2-3-3.9-3s-3.4 1.3-3.9 3h-2.3c-.4-1.7-2-3-3.9-3-1.2 0-2.3.5-3 1.4V53h2v-2h-2V13h2v-2h-2V5.6c.9.9 2 1.4 3.2 1.4 1.9 0 3.4-1.3 3.9-3h2.3c.4 1.7 2 3 3.9 3s3.4-1.3 3.9-3h2.2c.4 1.7 2 3 3.9 3s3.4-1.3 3.9-3h2.3c.4 1.7 2 3 3.9 3 1.2 0 2.3-.5 3-1.4V11h-2v2H50z" fill="#000000" className="color000 svgShape"></path><path d="M30 11h4v2h-4zM36 11h4v2h-4zM42 11h4v2h-4zM24 11h4v2h-4zM18 11h4v2h-4zM30 51h4v2h-4zM36 51h4v2h-4zM42 51h4v2h-4zM24 51h4v2h-4zM18 51h4v2h-4z" fill="#000000" className="color000 svgShape"></path></svg></g></svg>