<svg id="SvgjsSvg1001" width="256" height="256" xmlns="http://www.w3.org/2000/svg" version="1.1" xmlns:xlink="http://www.w3.org/1999/xlink" xmlns:svgjs="http://svgjs.com/svgjs"><defs id="SvgjsDefs1002"></defs><g id="SvgjsG1008"><svg xmlns="http://www.w3.org/2000/svg" data-name="Layer 1" viewBox="0 0 128 128" width="256" height="256"><path d="M80,128a2.0001,2.0001,0,0,0,2-2V58.13281l11.77539,1.752a7.867,7.867,0,0,0,8.2334-3.958c.01074-.01855.02148-.03711.03125-.05566a7.87135,7.87135,0,0,0-.46387-8.31641L86.125,24.873c-.02594-.03809-.0589-.06775-.08691-.10345-.02686-.03418-.04675-.07172-.07617-.10455-.02356-.02625-.05035-.04865-.07422-.07458-.01471-.01477-.02887-.02985-.04395-.04407a8.01007,8.01007,0,0,0-5.74579-2.5412A18.04286,18.04286,0,0,1,77.37793,26H80a4.00531,4.00531,0,0,1,2.9259,1.28284L98.28711,49.83105a3.95593,3.95593,0,0,1,.25781,4.09375c-.00781.0127-.01562.02637-.02246.04a3.887,3.887,0,0,1-4.1123,1.9707L69,52.1543V44.39117l3.08008,3.894.014.014a2.01068,2.01068,0,0,0,.3.30029c.03406.02747.07184.04724.1073.07227a1.97252,1.97252,0,0,0,.24878.1543c.04974.025.10107.04309.15247.06378a1.96874,1.96874,0,0,0,.24176.08295c.05829.01514.11646.02509.17578.03491.04688.00787.09082.02295.13885.02753l14.53613,1.38477q.09521.00879.19043.00879a1.99959,1.99959,0,0,0,1.63477-3.15039L82.55176,36.94141a1.99976,1.99976,0,1,0-3.27148,2.30078l4.76953,6.7832-9.36224-.89172-6.1192-7.73621c-.02356-.02979-.05261-.052-.07751-.08008a1.99993,1.99993,0,0,0-.14288-.14752,1.97216,1.97216,0,0,0-.15283-.1261c-.04932-.037-.09924-.07178-.15192-.10419a1.97085,1.97085,0,0,0-.18079-.09814c-.05432-.02612-.10907-.0498-.166-.071a1.97091,1.97091,0,0,0-.19891-.06171c-.05719-.01471-.11426-.02759-.17328-.03729a1.998,1.998,0,0,0-.2226-.02246c-.03442-.00177-.06683-.01025-.10168-.01025-.02307,0-.04443.006-.06732.00677a1.99873,1.99873,0,0,0-.22351.02258c-.05817.00854-.11578.01648-.17218.02991a1.99392,1.99392,0,0,0-.19379.06012c-.06134.02148-.12207.04266-.18054.06976-.05573.02582-.10889.05707-.16272.08838a1.9763,1.9763,0,0,0-.17932.11462c-.02.01465-.04224.024-.06183.03949-.02979.02356-.052.05261-.08008.07751a1.99993,1.99993,0,0,0-.14752.14288,1.96,1.96,0,0,0-.12561.15228c-.03748.04987-.07263.10052-.10541.15387a1.95713,1.95713,0,0,0-.09613.17706c-.027.05591-.05139.11237-.07318.171a1.96612,1.96612,0,0,0-.05975.19257c-.01544.05945-.02875.119-.03876.18048a2.01119,2.01119,0,0,0-.02161.21405c-.002.036-.01074.07013-.01074.10663V53.87891c0,.01782.00476.0343.00525.052a1.96217,1.96217,0,0,0,.022.21851c.00818.06012.01422.12036.02765.17859a1.96512,1.96512,0,0,0,.05945.19153c.02069.06085.03949.12195.06573.18005.02582.05707.05811.10992.08911.16418.03278.05743.06372.11536.10187.16907.03607.0509.078.09644.11865.1438.0426.0495.08337.09973.13049.14484.0459.04407.097.08185.14716.12146.0506.03992.09961.08081.154.11584.05292.03406.11011.06128.1665.09039a1.96728,1.96728,0,0,0,.1814.0874c.05707.02246.11731.03766.17706.05493a1.95966,1.95966,0,0,0,.20636.05237c.01837.00323.03478.0108.05334.01355L78,57.53772V70.75H49V57.68689l12.29395-1.82947c.01855-.00275.035-.01031.05334-.01355a1.95966,1.95966,0,0,0,.20636-.05237c.05975-.01727.12-.03247.17706-.05493a1.96728,1.96728,0,0,0,.1814-.0874c.0564-.02911.11359-.05634.1665-.09039.05438-.035.10339-.07593.154-.11584.05011-.03961.10126-.07739.14716-.12146.04712-.0451.08789-.09534.13049-.14484.04065-.04736.08258-.0929.11865-.1438.03815-.05371.06909-.11163.10187-.16907.031-.05426.06329-.10712.08911-.16418.02625-.05811.045-.1192.06573-.18005a1.96512,1.96512,0,0,0,.05945-.19153c.01343-.05823.01947-.11847.02765-.17859a1.96217,1.96217,0,0,0,.022-.21851c.00049-.0177.00525-.03418.00525-.052V38.63867c0-.0365-.00879-.07062-.01074-.10663a2.01119,2.01119,0,0,0-.02161-.21405c-.01-.06146-.02332-.121-.03876-.18048a1.96613,1.96613,0,0,0-.05975-.19257c-.02179-.05865-.0462-.11511-.07318-.171a1.95713,1.95713,0,0,0-.09613-.17706c-.03278-.05334-.06793-.104-.10541-.15387a1.96,1.96,0,0,0-.12561-.15228,1.99993,1.99993,0,0,0-.14752-.14288c-.02808-.0249-.05029-.054-.08008-.07751-.01971-.01556-.042-.025-.06207-.03973a2.00044,2.00044,0,0,0-.17737-.11346c-.05475-.03192-.10876-.06366-.16541-.08984-.05737-.02661-.11694-.0473-.17712-.06842a1.97544,1.97544,0,0,0-.1969-.06116c-.05566-.01318-.11261-.02106-.17-.02954a1.99513,1.99513,0,0,0-.22491-.02271c-.02289-.00079-.04437-.00677-.06744-.00677-.03491,0-.06738.00848-.10187.01025a2.00282,2.00282,0,0,0-.22107.02234c-.06006.00983-.11816.02289-.17627.0379a1.97776,1.97776,0,0,0-.19476.06042c-.05853.02173-.11493.04614-.17072.07306a1.98446,1.98446,0,0,0-.17615.09564c-.05414.03326-.10553.06891-.15613.107-.05164.03882-.10156.07928-.14984.1236a1.995,1.995,0,0,0-.14447.14911c-.02472.02789-.05365.04987-.07709.07947l-6.1192,7.73621-9.36224.89172,5.44922-7.75a1.99976,1.99976,0,1,0-3.27148-2.30078L38.17969,47.27832a1.99959,1.99959,0,0,0,1.63477,3.15039q.09521,0,.19043-.00879L54.541,49.03516c.04834-.00458.09259-.01978.13977-.02765.05853-.00977.11609-.01941.17365-.03436a1.96317,1.96317,0,0,0,.24725-.08478c.04926-.0199.09857-.03723.14624-.06116a1.97681,1.97681,0,0,0,.2583-.16022c.03253-.02307.06738-.04114.09863-.06635a2.00444,2.00444,0,0,0,.30182-.30225l.01324-.01324L59,44.39117V52.1543L33.543,55.94336a3.878,3.878,0,0,1-4.06543-1.97852c-.00684-.01367-.01465-.02637-.02246-.04a3.96633,3.96633,0,0,1,.27539-4.11816L45.0741,27.28284A4.00531,4.00531,0,0,1,48,26h2.62207a18.04286,18.04286,0,0,1-2.72-3.99481,8.01038,8.01038,0,0,0-5.747,2.54242c-.014.01331-.02722.02734-.04089.04108-.02441.02655-.05194.04944-.076.07635-.02966.03314-.0498.071-.07684.10547-.02777.0354-.06049.06482-.08624.10254L26.44141,47.53027A7.88171,7.88171,0,0,0,25.96,55.87109c.00977.01855.02051.03613.03125.05469a7.879,7.879,0,0,0,6.875,4.0791,7.74861,7.74861,0,0,0,1.31152-.1123L45,58.2821V126a2,2,0,0,0,4,0V82H78v44A2.0001,2.0001,0,0,0,80,128ZM49,78V74.75H78V78Z" fill="#000000" class="color000 svgShape"></path><path d="M64 28A14 14 0 1050 14 14.01573 14.01573 0 0064 28zM64 4A10 10 0 1154 14 10.01177 10.01177 0 0164 4zM62 94v32a2 2 0 004 0V94a2 2 0 00-4 0z" fill="#000000" class="color000 svgShape"></path></svg></g></svg>