<svg id="SvgjsSvg1028" width="256" height="256" xmlns="http://www.w3.org/2000/svg" version="1.1" xmlns:xlink="http://www.w3.org/1999/xlink" xmlns:svgjs="http://svgjs.com/svgjs"><defs id="SvgjsDefs1029"></defs><g id="SvgjsG1030"><svg xmlns="http://www.w3.org/2000/svg" enable-background="new 0 0 181.65 236.734" viewBox="0 0 181.65 236.734" width="256" height="256"><circle cx="46.344" cy="31.051" r="22.495" transform="rotate(-76.891 46.347 31.052)" fill="#000000" className="color000 svgShape"></circle><path d="M19.045 116.896c.019 0 .037-.001.056-.001v-.001c.016-.001.123-.001.197-.001.034 0 .063 0 .07-.001 4.858-.046 10.036-1.254 15.89-3.686 2.411-1.002 4.939-2.212 7.607-3.636 1.514-.809 3.068-1.678 4.678-2.625 3.799-2.253 5.051-7.163 2.795-10.962-.69-1.162-1.629-2.082-2.708-2.74-2.447-1.493-5.616-1.621-8.253-.055-.199.119-.389.227-.586.343-9.604 5.667-16.296 7.435-19.423 7.362-.026-.001-.045-.003-.07-.004-.05-.002-.085-.006-.134-.009-.12-.007-.252-.016-.267-.016v-.001c-1.87-.123-1.973-.492-2.167-.626-.195-.188-.73-1.151-.729-3.186-.046-2.783 1.159-6.995 3.296-10.616v12.457c.063.001.122.002.144.003h.118c3.097 0 9.66-1.951 18.788-7.422.289-.171.592-.312.894-.453l1.658-9.231c-1.146-1.776-1.598-4.081-1.049-6.41 1.011-4.303 5.025-7.041 8.969-6.115 3.938.927 6.316 5.166 5.304 9.471-.548 2.328-1.979 4.191-3.797 5.271l-2.125 7.279c1.571.849 2.92 2.102 3.856 3.676 1.363 2.298 1.75 4.989 1.09 7.577-.658 2.589-2.286 4.766-4.582 6.129-2.26 1.33-4.415 2.519-6.48 3.576l-2.359 8.084-5.514-1.296.626-3.487c-5.661 2.231-10.674 3.303-15.45 3.347l-.09 0v.54 18.939 86c0 6.829 5.537 12.363 12.363 12.363 6.828 0 12.365-5.534 12.365-12.363v-78.272h4.635v78.272c0 6.829 5.537 12.363 12.363 12.363 6.828 0 12.365-5.534 12.365-12.363v-86-18.939-31.12c.925.556 1.895 1.089 2.919 1.584 3.703 1.784 8.129 3.073 13.039 3.071.028 0 .057 0 .085 0 3.07 0 6.284-.542 9.509-1.653l7.689-25.277c-3.556 4.278-6.784 6.968-9.517 8.572-3.128 1.823-5.566 2.343-7.766 2.357-2.112 0-4.114-.538-6.104-1.491-2.969-1.409-5.758-3.829-7.674-5.919-.962-1.038-1.711-1.981-2.194-2.628-.243-.322-.418-.573-.52-.722-.051-.076-.086-.127-.1-.149l-.001.001c-1.102-1.723-2.757-2.873-4.584-3.384-.788-.27-1.629-.424-2.509-.424H27.026c-.518 0-1.023.053-1.511.15-.54.047-1.084.149-1.624.313-7.734 2.407-13.421 7.917-17.43 14.05C2.492 82.972.052 89.978 0 97.052c.005 4.592 1.128 9.55 4.606 13.625C8 114.718 13.472 116.896 19.045 116.896zM120.786 73.954c2.698-3.499 2.051-8.522-1.447-11.22-.455-.351-.937-.643-1.435-.882L111.1 84.225C114.37 81.49 117.592 78.09 120.786 73.954z" fill="#000000" className="color000 svgShape"></path><path d="M96.306,125.994l12.065-39.668l7.634-25.1l5.242-17.234c7.096-0.341,40.37-1.385,60.403,7.749
		C168.783,19.79,138.302,7.323,132.996,5.362l1.138-3.742L128.808,0l-19.034,62.58L101.312,90.4l-10.333,33.974L96.306,125.994z" fill="#000000" className="color000 svgShape"></path></svg></g></svg>