<svg id="SvgjsSvg1032" width="256" height="256" xmlns="http://www.w3.org/2000/svg" version="1.1" xmlns:xlink="http://www.w3.org/1999/xlink" xmlns:svgjs="http://svgjs.com/svgjs"><defs id="SvgjsDefs1033"></defs><g id="SvgjsG1034"><svg xmlns="http://www.w3.org/2000/svg" enable-background="new 0 0 48 48" viewBox="0 0 48 48" width="256" height="256"><path d="M25.532,43.274c0.261,0.696-0.301,1.424-1.04,1.346l-2.866-0.3c-0.549-0.057-0.948-0.549-0.891-1.099l0.231-2.212
	l-5.787-3.368c-0.306-0.178-0.494-0.5-0.494-0.858v-0.032c0-1.584-1.005-2.988-2.496-3.52c-0.22-0.078-0.424-0.165-0.615-0.256
	c-1.639-0.788-2.907-2.249-3.314-4.086c-0.549-2.478,0.54-4.791,2.361-6.12C8.673,21.584,7.019,21.49,6,22
	c-1.899,0.95-2.897,1.899-4.705,1.136c-0.15-0.063-0.195-0.265-0.095-0.393C2.973,20.474,4.072,19,6,19
	c1.863,0,3.969,1.985,4.818,3.639c1.026-0.69,2.259-1.083,3.56-1.026c0.556,0.024,1.252,0.055,2.018,0.088l3.202,2.14l-1.234,6.206
	c-0.292,1.469,0.276,2.899,1.34,3.81c-0.206-0.009-0.4-0.017-0.58-0.025c-0.125,0.509-0.257,1.063-0.397,1.685
	c2.032,1.307,4.115,2.644,4.85,3.116c0.181,0.116,0.318,0.287,0.394,0.488L25.532,43.274z M45.931,29.447
	c0.069,0.343-0.046,0.697-0.304,0.934l-0.163,0.149c-0.284,0.26-0.692,0.334-1.049,0.191l-2.367-0.952l0.041-0.942
	c-2.954-1.13-3.909-2.172-3.822-4.17c-2.13-0.093-3.83,1.944-4.651,3.426l-1.192-0.292c-0.53-0.132-1.077,0.196-1.209,0.733
	c-0.131,0.537,0.197,1.078,0.734,1.209l2.009,0.491l4.764,1.165c0.613,0.15,0.935,0.822,0.669,1.394l-3.707,7.949
	c-0.085,0.183-0.224,0.336-0.398,0.439l-3.52,2.078c-0.609,0.36-1.389-0.01-1.497-0.709l-0.384-2.494
	c-0.084-0.546,0.29-1.056,0.836-1.141l2.53-0.39c0,0,0.814-1.737,2.119-4.544c-2.005-0.232-4.646-0.449-6.612-0.899
	c-1.103,0.378-2.42,0.648-3.896,0.787c0.665-0.564,1.163-1.334,1.346-2.254l1.755-8.828c0.112-0.566,0.1-1.134-0.022-1.672
	l0.238,0.727c0.689,2.095,2.954,3.239,5.049,2.55c2.095-0.689,3.239-2.954,2.55-5.049c-0.406-1.241-0.756-2.311-1.069-3.264
	c1.496-0.531,3.141-0.857,4.965-0.777c2.644,0.115,4.788,1.117,6.281,2.941c0.338,0.413,0.295,1.021-0.098,1.381l-1.916,1.756
	l-0.01,0c0.037,0.074,0.08,0.142,0.114,0.219C44.753,23.169,45.303,26.317,45.931,29.447z M43.307,23.875
	c0.024-0.552-0.404-1.019-0.956-1.043c-0.552-0.024-1.019,0.404-1.043,0.956s0.404,1.019,0.956,1.043S43.283,24.427,43.307,23.875z
	 M5,6h14c0.553,0,1-0.448,1-1s-0.447-1-1-1H5C4.447,4,4,4.448,4,5S4.447,6,5,6z M5,16h4c0.553,0,1-0.448,1-1s-0.447-1-1-1H5
	c-0.553,0-1,0.448-1,1S4.447,16,5,16z M5,11h7c0.553,0,1-0.448,1-1s-0.447-1-1-1H5c-0.553,0-1,0.448-1,1S4.447,11,5,11z
	 M13.97,16.864c0.315,0.762,0.84,1.373,1.478,1.798c0.328,0.219,6.372,4.259,6.372,4.259l-1.495,7.516
	c-0.216,1.083,0.488,2.136,1.571,2.352c1.083,0.216,2.136-0.488,2.352-1.571c0,0,1.09-5.484,1.755-8.827
	c0.153-0.769-0.157-1.59-0.85-2.053L18.663,16c-0.459-0.307-0.583-0.928-0.275-1.387c0.305-0.459,0.925-0.584,1.387-0.276
	l4.114,2.749l2.408-0.997l-1.137-3.464c-0.172-0.525,0.113-1.09,0.639-1.262c0.523-0.17,1.089,0.114,1.262,0.638l3.022,9.211
	c0.345,1.049,1.476,1.62,2.525,1.274c1.049-0.345,1.62-1.476,1.274-2.525c0,0-3.215-9.824-3.281-9.985
	c-0.845-2.041-3.185-3.01-5.226-2.165l-9.239,3.827C14.094,12.483,13.125,14.823,13.97,16.864z M35.826,12.141
	c2.041-0.845,3.01-3.185,2.165-5.226s-3.185-3.01-5.226-2.165s-3.01,3.185-2.165,5.226S33.786,12.986,35.826,12.141z" fill="#000000" className="color000 svgShape"></path></svg></g></svg>