<svg id="SvgjsSvg1012" width="256" height="256" xmlns="http://www.w3.org/2000/svg" version="1.1" xmlns:xlink="http://www.w3.org/1999/xlink" xmlns:svgjs="http://svgjs.com/svgjs"><defs id="SvgjsDefs1013"></defs><g id="SvgjsG1014"><svg xmlns="http://www.w3.org/2000/svg" viewBox="0 0 96 96" width="256" height="256"><path fill="#2c2b38" d="M95.25,35.15a24.68,24.68,0,0,0-9.66-1.63,20.4,20.4,0,0,1-5.32-.44,32.27,32.27,0,0,1-7.2-2.56s0,0,0,0h0c-4.74-2.51-5.33-5-11.91-7.56l.77-2.15a2.53,2.53,0,0,0-1.52-3.21l-.65-.23a2.5,2.5,0,0,0-3.21,1.52L48,42.66l-8.45-23.6a2.71,2.71,0,0,0-3.47-1.64l-.27.09A2.72,2.72,0,0,0,34.16,21l.7,2c-8,3.12-7.12,6.09-15.44,9.06-8.53,3.05-9.73-.07-18.67,3.13a1,1,0,0,0-.61,1.28L9.05,61.31a1,1,0,0,0,1.28.6c8.35-3,9.77.05,18.68-3.12,8.66-3.11,7.89-6.13,15.44-9.09L45,51.13,36.34,75.21a2.53,2.53,0,0,0,1.52,3.21l.64.23a2.52,2.52,0,0,0,3.22-1.52L48,59.6l6.21,17.34a2.72,2.72,0,0,0,2.56,1.8A2.88,2.88,0,0,0,58,78.48,2.72,2.72,0,0,0,59.59,75L51,51.13l.52-1.43a20.89,20.89,0,0,1,4.81,2.55h0c2.17,1.51,3.61,3.2,6.81,4.89A31.67,31.67,0,0,0,71,59.93c3.55.74,5.69.34,8.39.55h.07c3.69.27,6,1.49,6.58,1.49a1,1,0,0,0,.94-.67c4.35-12.14,1.62-4.51,8.91-24.88A1,1,0,0,0,95.25,35.15Zm-8.31.38-2.4,6.71c-2.05-.08-3.36.06-5.3-.14-.11,0-.82-.09-.93-.12l2.42-6.78A34.15,34.15,0,0,0,86.94,35.53ZM81.85,49.74h-.27a48.29,48.29,0,0,1-6-.26l2-5.57a35.43,35.43,0,0,0,6.21.32ZM57.34,33.51a22.53,22.53,0,0,1,4.22,2.12l-2,5.56a26.16,26.16,0,0,0-4.22-2.07Zm5.9,3.34a39.88,39.88,0,0,0,5,3.7c0,.1,0-.07-2,5.57a53.42,53.42,0,0,1-5-3.75ZM70,41.48a34.67,34.67,0,0,0,5.6,2l-2,5.6a31.25,31.25,0,0,1-5.61-2Zm3.11-8.71a33,33,0,0,0,5.61,2l-2.44,6.81a32.05,32.05,0,0,1-5.61-2Zm-1.79-.92-2.43,6.78a51.61,51.61,0,0,1-5-3.77c.17-.49-.3.83,2.41-6.7A35.36,35.36,0,0,0,71.36,31.85Zm-6.69-4.91L62.25,33.7A26.65,26.65,0,0,0,58,31.63l2.43-6.81A22.09,22.09,0,0,1,64.67,26.94Zm-28.6-7.17a.91.91,0,0,1,.68-.47.72.72,0,0,1,.91.43l9.27,25.9L46,48.15C35.31,18.23,35.89,20.16,36.07,19.77ZM31.86,55.39A31.05,31.05,0,0,1,24.63,58c-5.12,1.07-7.37-.45-14,1.73l-8.23-23c7.64-2.48,9.18.24,17.72-2.8s8-6.17,15.45-9.08c.1,0-.09-.29,8.24,23C37.25,50.35,36.52,52.92,31.86,55.39ZM57.7,75.7a.7.7,0,0,1-.42.9h0L57,76.7a.7.7,0,0,1-.91-.43l-7-19.64L50,54.1Zm-18.13,1c-.27.12-.5,0-1-.21a.51.51,0,0,1-.31-.66C59.55,16.36,58.33,19.4,58.67,19.25s.35,0,1,.21a.51.51,0,0,1,.31.66C38.71,79.57,39.89,76.59,39.57,76.75ZM54.66,41a22.33,22.33,0,0,1,4.21,2.12l-2.43,6.77a25.52,25.52,0,0,0-4.22-2.07Zm8.47,13.83a57.23,57.23,0,0,1-5-3.76l2.41-6.73a38.46,38.46,0,0,0,5,3.7Zm7.39,3a31.27,31.27,0,0,1-5.6-2C67,49.9,66.43,51.52,67.35,49A33.71,33.71,0,0,0,73,51Zm8.22.66h0a51,51,0,0,1-6.22-.27l2.43-6.78a37.22,37.22,0,0,0,6.2.33Zm6.65,1.26a25,25,0,0,0-4.59-1.08l2.42-6.77a21.56,21.56,0,0,1,4.62,1ZM88.51,51a26.23,26.23,0,0,0-4.6-1.08l2-5.57a22.81,22.81,0,0,1,4.61,1Zm2.68-7.49a26.53,26.53,0,0,0-4.59-1.09L89,35.66a23.51,23.51,0,0,1,4.61,1Z" className="color2c2b38 svgShape"></path></svg></g></svg>
