<svg id="SvgjsSvg1013" width="256" height="256" xmlns="http://www.w3.org/2000/svg" version="1.1" xmlns:xlink="http://www.w3.org/1999/xlink" xmlns:svgjs="http://svgjs.com/svgjs"><defs id="SvgjsDefs1014"></defs><g id="SvgjsG1015"><svg xmlns="http://www.w3.org/2000/svg" data-name="Layer 3" viewBox="0 0 64 64" width="256" height="256"><path d="M62,48a1,1,0,0,0,1-1V22a3,3,0,0,0-3-3H56.5l-6-8a10.049,10.049,0,0,0-8-4H28.519a9.979,9.979,0,0,0-6.784,2.652L11.609,19H6a5.006,5.006,0,0,0-5,5V34a1,1,0,0,0,1,1H9.08a6.975,6.975,0,0,0,2.031,4H2a1,1,0,0,0-1,1v4a1,1,0,0,0,1,1H29v2a1,1,0,0,0,1,1h3v6H1v2H63V54H59V48ZM59,21h1a1,1,0,0,1,1,1v4.816A3,3,0,0,1,59,24ZM39,9h3.5a8.04,8.04,0,0,1,6.4,3.2L54,19H39ZM35,9h2V19H35ZM23.092,11.122A7.978,7.978,0,0,1,28.519,9H33V19H14.558ZM3,24a3,3,0,0,1,3-3H7v2a2,2,0,0,1-2,2H3Zm8,10a5,5,0,1,1,5,5A5.006,5.006,0,0,1,11,34Zm18,9H3V41H29Zm0-4H20.889a6.975,6.975,0,0,0,2.031-4H29Zm0-8v2H22.92A6.991,6.991,0,0,0,9.08,33H3V27H5a4,4,0,0,0,4-4V21H57v3a5.009,5.009,0,0,0,4,4.9V30H55.735a6.974,6.974,0,0,0-11.462,0H30A1,1,0,0,0,29,31Zm23.99-1H47.009a4.972,4.972,0,0,1,5.981,0ZM37,54H35V48h2Zm16,0H39V48H53Zm4,0H55V48h2ZM31,46V32H61V46Z" fill="#000000" className="color000 svgShape"></path><rect width="4" height="2" x="30" y="23" fill="#000000" className="color000 svgShape"></rect><path d="M16 37a3 3 0 10-3-3A3 3 0 0016 37zm0-4a1 1 0 11-1 1A1 1 0 0116 33zM35.5 34H34a1 1 0 00-1 1v9h2V41h1a1 1 0 011 1v2h2V42a2.985 2.985 0 00-.921-2.154A3.485 3.485 0 0035.5 34zm0 5H35V36h.5a1.5 1.5 0 010 3zM40 35v8a1 1 0 001 1h4V42H42V40h3V38H42V36h3V34H41A1 1 0 0040 35zM50 38.764l-2.1-4.211A1 1 0 0046 35v9h2V39.236l2.1 4.211A1 1 0 0052 43V34H50z" fill="#000000" className="color000 svgShape"></path><polygon points="53 36 55 36 55 44 57 44 57 36 59 36 59 34 53 34 53 36" fill="#000000" className="color000 svgShape"></polygon></svg></g></svg>