<svg id="SvgjsSvg1012" width="256" height="256" xmlns="http://www.w3.org/2000/svg" version="1.1" xmlns:xlink="http://www.w3.org/1999/xlink" xmlns:svgjs="http://svgjs.com/svgjs"><defs id="SvgjsDefs1013"></defs><g id="SvgjsG1014"><svg xmlns="http://www.w3.org/2000/svg" enable-background="new 0 0 64 64" viewBox="0 0 64 64" width="256" height="256"><path d="M37.155,33.312h12.564V8H14.281v25.312h12.564c0.497,1.818,1.931,3.252,3.749,3.749v10.501h-2.766
		c-3.877,0-7.031,3.154-7.031,7.031V56h22.406v-1.406c0-3.877-3.154-7.031-7.031-7.031h-2.766V37.061
		C35.224,36.564,36.658,35.13,37.155,33.312L37.155,33.312z M40.15,53.187h-16.3c0.581-1.637,2.145-2.812,3.978-2.812h8.344
		C38.005,50.375,39.569,51.55,40.15,53.187L40.15,53.187z M26.845,30.5h-9.751V10.812h29.812V30.5h-9.751
		c-0.619-2.266-2.695-3.938-5.155-3.938S27.464,28.234,26.845,30.5L26.845,30.5z M29.469,31.906c0-1.396,1.136-2.531,2.531-2.531
		s2.531,1.136,2.531,2.531c0,1.395-1.136,2.531-2.531,2.531S29.469,33.302,29.469,31.906L29.469,31.906z M29.469,31.906" fill="#000000" className="color000 svgShape"></path><rect width="24.188" height="2.812" x="19.906" y="13.625" fill="#000000" className="color000 svgShape"></rect><rect width="15.937" height="2.812" x="24.031" y="19.25" fill="#000000" className="color000 svgShape"></rect></svg></g></svg>